# AST/ASF file generated using VICON BodyLanguage
# -----------------------------------------------
:version 1.10
:name VICON
:units
  mass 1.0
  length 0.45
  angle deg
:documentation
   .ast/.asf automatically generated from VICON data using
   VICON BodyBuilder and BodyLanguage model FoxedUp or BRILLIANT.MOD
:root
   order TX TY TZ RX RY RZ
   axis XYZ
   position 0 0 0  
   orientation 0 0 0 
:bonedata
  begin
     id 1 
     name lhipjoint
     direction 0.561001 -0.76473 0.316963 
     length 2.4722 
     axis 0 0 0  XYZ
  end
  begin
     id 2 
     name lfemur
     direction 0.34202 -0.939693 0  
     length 7.59403  
     axis 0 0 20  XYZ
    dof rx ry rz
    limits (-160.0 20.0)
           (-70.0 70.0)
           (-60.0 70.0)
  end
  begin
     id 3 
     name ltibia
     direction 0.34202 -0.939693 0   
     length 7.89655   
     axis 0 0 20   XYZ
    dof rx
    limits (-10.0 170.0)
  end
  begin
     id 4 
     name lfoot
     direction 0.061296 -0.168409 0.98381   
     length 2.73287   
     axis -90 7.62852e-016 20   XYZ
    dof rx rz
    limits (-45.0 90.0)
           (-70.0 20.0)
  end
  begin
     id 5 
     name ltoes
     direction 1.53547e-011 -4.21984e-011 1   
     length 1.37057   
     axis -90 7.62852e-016 20   XYZ
    dof rx
    limits (-90.0 20.0)
  end
  begin
     id 6 
     name rhipjoint
     direction -0.559611 -0.765599 0.317323   
     length 2.46939  
     axis 0 0 0  XYZ 
  end
  begin
     id 7 
     name rfemur
     direction -0.34202 -0.939693 0   
     length 7.53712   
     axis 0 0 -20   XYZ
    dof rx ry rz
    limits (-160.0 20.0)
           (-70.0 70.0)
           (-70.0 60.0)
  end
  begin
     id 8 
     name rtibia
     direction -0.34202 -0.939693 0   
     length 8.12549   
     axis 0 0 -20   XYZ
    dof rx
    limits (-10.0 170.0)
 end
 begin
     id 9 
     name rfoot
     direction -0.066984 -0.184037 0.980634   
     length 2.67541  
     axis -90 -7.62852e-016 -20   XYZ
    dof rx rz
    limits (-45.0 90.0)
           (-20.0 70.0)
  end
  begin
     id 10 
     name rtoes
     direction -1.53549e-011 -4.21786e-011 1   
     length 1.34085   
     axis -90 -7.62852e-016 -20   XYZ
    dof rx
    limits (-90.0 20.0)
  end
  begin
     id 11 
     name lowerback
     direction -0.0522728 0.992594 -0.109658   
     length 2.05633   
     axis 0 0 0   XYZ
    dof rx ry rz
    limits (-20.0 45.0)
           (-30.0 30.0)
           (-30.0 30.0)
  end
  begin
     id 12 
     name upperback
     direction 0.00589338 0.999977 0.00335704   
     length 2.05845   
     axis 0 0 0   XYZ
    dof rx ry rz
    limits (-20.0 45.0)
           (-30.0 30.0)
           (-30.0 30.0)
  end
  begin
     id 13 
     name thorax
     direction 0.0292928 0.998059 0.0549487   
     length 2.09281   
     axis 0 0 0   XYZ
    dof rx ry rz
    limits (-20.0 45.0)
           (-30.0 30.0)
           (-30.0 30.0)
  end
  begin
     id 14 
     name lowerneck
     direction 0.0356368 0.980775 0.191858   
     length 1.84767   
     axis 0 0 0   XYZ
    dof rx ry rz
    limits (-20.0 45.0)
           (-30.0 30.0)
           (-30.0 30.0)
  end
  begin
     id 15 
     name upperneck
     direction -0.0227605 0.98931 -0.14404   
     length 1.89582   
     axis 0 0 0   XYZ
    dof rx ry rz
    limits (-20.0 45.0)
           (-30.0 30.0)
           (-30.0 30.0)
  end
  begin
     id 16
     name head
     direction -0.00932985 0.997511 -0.0698904  
     length 1.90213  
     axis 0 0 0   XYZ
    dof rx ry rz
    limits (-20.0 45.0)
           (-30.0 30.0)
           (-30.0 30.0)
  end
  begin
     id 17 
     name lclavicle
     direction 0.873442 0.479511 0.0846686  
     length 3.41193  
     axis 0 0 0   XYZ
    dof ry rz
    limits (-20.0 10.0)
           (0.0 20.0)
  end
  begin
     id 18 
     name lhumerus
     direction 1 -4.4897e-011 -5.62117e-018   
     length 5.59864   
     axis 180 -30 -90   XYZ
    dof rx ry rz
    limits (-60.0 90.0)
           (-90.0 90.0)
           (-90.0 90.0)
  end
  begin
     id 19
     name lradius
     direction 1 -4.48966e-011 -6.26295e-027   
     length 3.59542   
     axis 180 -30 -90   XYZ
    dof rx
    limits (-10.0 170.0)
  end
  begin
     id 20
     name lwrist
     direction 1 -4.48947e-011 -1.74096e-026   
     length 1.79771   
     axis 1.04567e-014 90 90   XYZ
    dof ry
    limits (-180.0 0.0)
 end
  begin
     id 21 
     name lhand
     direction 1 -4.49085e-011 -3.48469e-026   
     length 0.572014   
     axis 2.22196e-014 90 90   XYZ
    dof rx rz
    limits (-90.0 90.0)
           (-45.0 45.0)
  end
  begin
     id 22 
     name lfingers
     direction 1 -4.48884e-011 -6.96135e-026   
     length 0.461173   
     axis 4.44383e-014 90 90   XYZ
    dof rx
    limits (0.0 90.0)
  end
  begin
     id 23
     name lthumb
     direction 0.707107 -6.34976e-011 0.707107   
     length 0.662154   
     axis -90 45 -5.4397e-014   XYZ
    dof rx rz
    limits (-45.0 45.0)
           (-45.0 45.0)
  end
  begin
     id 24 
     name rclavicle
     direction -0.890242 0.443271 0.104786   
     length 3.46753  
     axis 0 0 0   XYZ 
    dof ry rz
    limits (-10.0 20.0)
           (-20.0 0.0)
  end
  begin
     id 25 
     name rhumerus
     direction -1 -4.48963e-011 -5.41723e-018  
     length 5.8094   
     axis 180 30 90   XYZ
    dof rx ry rz
    limits (-90.0 60.0)
           (-90.0 90.0)
           (-90.0 90.0)
  end
  begin
     id 26 
     name rradius
     direction -1 -4.48958e-011 -6.51059e-027   
     length 3.66953   
     axis 180 30 90   XYZ
    dof rx
    limits (-10.0 170.0)
  end
  begin
     id 27 
     name rwrist
     direction -1 -4.48975e-011 -1.74124e-026   
     length 1.83476   
     axis 1.04567e-014 -90 -90   XYZ
    dof ry
    limits (-180.0 0.0)
  end
  begin
     id 28
     name rhand
     direction -1 -4.49013e-011 -3.48326e-026   
     length 0.57843   
     axis 2.22196e-014 -90 -90   XYZ
    dof rx rz
    limits (-90.0 90.0)
           (-45.0 45.0)
  end
  begin
     id 29
     name rfingers
     direction -1 -4.49023e-011 -6.9669e-026   
     length 0.466345   
     axis 4.44383e-014 -90 -90   XYZ
    dof rx
    limits (0.0 90.0)
  end
  begin
     id 30
     name rthumb
     direction -0.707107 -6.34926e-011 0.707107   
     length 0.669581   
     axis -90 -45 5.4397e-014   XYZ
    dof rx rz
    limits (-45.0 45.0)
           (-45.0 45.0)
  end
:hierarchy
  begin
    root lhipjoint rhipjoint lowerback
    lhipjoint lfemur
    lfemur ltibia
    ltibia lfoot
    lfoot ltoes
    rhipjoint rfemur
    rfemur rtibia
    rtibia rfoot
    rfoot rtoes
    lowerback upperback
    upperback thorax
    thorax lowerneck lclavicle rclavicle
    lowerneck upperneck
    upperneck head
    lclavicle lhumerus
    lhumerus lradius
    lradius lwrist
    lwrist lhand lthumb
    lhand lfingers
    rclavicle rhumerus
    rhumerus rradius
    rradius rwrist
    rwrist rhand rthumb
    rhand rfingers
  end

#!OML:ASF H:\SkateBoarding\Project 1\Capture day 1\Session 1\Skater.ASF
:FULLY-SPECIFIED
:DEGREES
160
root 14.1009 19.6261 20.3411 -3.80664 54.8097 -14.4264
lowerback 11.6066 0.817727 -5.97236
upperback -0.434938 0.255108 -0.321892
thorax -7.02074 0.34046 2.98462
lowerneck -11.2827 1.08128 5.79567
upperneck 44.7454 2.08818 -0.715795
head 19.0924 2.16676 -0.868916
rclavicle -1.98785e-014 3.65764e-014
rhumerus -18.9907 -5.52769 -92.7978
rradius 28.6457
rwrist 0.217656
rhand -28.2703 -6.62749
rfingers 7.12502
rthumb -1.64701 -36.6009
lclavicle -1.98785e-014 3.65764e-014
lhumerus -18.8385 -1.02603 79.8234
lradius 28.1709
lwrist 18.2005
lhand -21.2724 11.4835
lfingers 7.12502
lthumb 5.11133 41.4018
rfemur -25.8552 -0.545197 27.9187
rtibia 31.1356
rfoot -16.5222 3.64859
rtoes -5.87634
lfemur -22.7056 -22.076 1.77695
ltibia 35.8218
lfoot -46.9793 22.1193
ltoes -18.2883
161
root 14.0191 19.6239 20.5323 -3.80094 54.5867 -14.452
lowerback 11.5643 0.849366 -5.97755
upperback -0.422201 0.300049 -0.319788
thorax -6.98751 0.361366 2.98202
lowerneck -11.2469 1.11878 5.8285
upperneck 44.7816 2.1575 -0.74587
head 19.1113 2.19628 -0.877001
rclavicle -2.38542e-015 6.36111e-015
rhumerus -18.9534 -5.39142 -92.8648
rradius 28.7165
rwrist 0.15094
rhand -28.1391 -6.72917
rfingers 7.12502
rthumb -1.52027 -36.7035
lclavicle -2.38542e-015 6.36111e-015
lhumerus -18.8936 -1.10122 79.8743
lradius 28.1826
lwrist 18.2271
lhand -21.2908 11.4903
lfingers 7.12502
lthumb 5.09358 41.4091
rfemur -25.7974 -0.542613 27.9402
rtibia 31.0151
rfoot -16.467 3.72502
rtoes -5.78239
lfemur -22.7228 -22.1015 1.78776
ltibia 35.9133
lfoot -47.1405 22.1214
ltoes -18.179
162
root 13.9372 19.6214 20.7231 -3.79155 54.3601 -14.4701
lowerback 11.5173 0.881238 -5.99043
upperback -0.410605 0.344325 -0.321009
thorax -6.95286 0.382155 2.9804
lowerneck -11.2111 1.15584 5.86422
upperneck 44.8176 2.22644 -0.778792
head 19.1302 2.22572 -0.887104
rclavicle -2.78299e-014 4.77083e-015
rhumerus -18.9281 -5.24227 -92.9415
rradius 28.8029
rwrist 0.079931
rhand -27.9878 -6.8304
rfingers 7.12502
rthumb -1.37411 -36.8057
lclavicle -2.78299e-014 4.77083e-015
lhumerus -18.9484 -1.18649 79.9244
lradius 28.2035
lwrist 18.2627
lhand -21.2742 11.4921
lfingers 7.12502
lthumb 5.10963 41.4105
rfemur -25.7383 -0.534917 27.9586
rtibia 30.9015
rfoot -16.4168 3.80818
rtoes -5.6746
lfemur -22.7301 -22.1268 1.79418
ltibia 36.005
lfoot -47.3217 22.0935
ltoes -18.0196
163
root 13.855 19.6188 20.9133 -3.78663 54.1372 -14.4928
lowerback 11.4689 0.908838 -6.00345
upperback -0.400442 0.383001 -0.321541
thorax -6.91845 0.400266 2.98062
lowerneck -11.1769 1.19264 5.90091
upperneck 44.8519 2.29847 -0.821495
head 19.1489 2.25511 -0.901654
rclavicle -2.82274e-014 -3.18055e-015
rhumerus -18.9125 -5.0723 -93.0248
rradius 28.9035
rwrist -0.00289302
rhand -27.8213 -6.92925
rfingers 7.12502
rthumb -1.21329 -36.9055
lclavicle -2.82274e-014 -3.18055e-015
lhumerus -19.0013 -1.26024 79.9759
lradius 28.2316
lwrist 18.2931
lhand -21.2362 11.4881
lfingers 7.12502
lthumb 5.14624 41.4056
rfemur -25.6823 -0.523628 27.9792
rtibia 30.7967
rfoot -16.377 3.89087
rtoes -5.56932
lfemur -22.7328 -22.1531 1.80625
ltibia 36.0974
lfoot -47.5272 22.0073
ltoes -17.7814
164
root 13.7723 19.616 21.1028 -3.78229 53.919 -14.513
lowerback 11.4242 0.938738 -6.0165
upperback -0.392456 0.424043 -0.327486
thorax -6.88866 0.419615 2.97474
lowerneck -11.1458 1.22491 5.94065
upperneck 44.8842 2.36181 -0.863785
head 19.1669 2.28161 -0.918164
rclavicle 2.42517e-014 -2.70347e-014
rhumerus -18.9057 -4.92072 -93.1118
rradius 29.0149
rwrist -0.0848511
rhand -27.6388 -7.02051
rfingers 7.12502
rthumb -1.03711 -36.9977
lclavicle 2.42517e-014 -2.70347e-014
lhumerus -19.0496 -1.35452 80.028
lradius 28.2678
lwrist 18.3257
lhand -21.1714 11.4782
lfingers 7.12502
lthumb 5.20882 41.3942
rfemur -25.629 -0.51254 27.9982
rtibia 30.7012
rfoot -16.3426 3.97482
rtoes -5.46335
lfemur -22.7355 -22.181 1.81678
ltibia 36.1911
lfoot -47.7298 21.9259
ltoes -17.5598
165
root 13.6889 19.6129 21.2914 -3.78923 53.7116 -14.5455
lowerback 11.387 0.959798 -6.02503
upperback -0.387236 0.453468 -0.330926
thorax -6.86495 0.433408 2.97097
lowerneck -11.1111 1.25989 5.9808
upperneck 44.9088 2.43457 -0.919499
head 19.1797 2.30977 -0.939749
rclavicle -6.36111e-015 -4.6118e-014
rhumerus -18.9039 -4.75118 -93.2069
rradius 29.1333
rwrist -0.178686
rhand -27.447 -7.1056
rfingers 7.12502
rthumb -0.851792 -37.0836
lclavicle -6.36111e-015 -4.6118e-014
lhumerus -19.0972 -1.43153 80.0773
lradius 28.3092
lwrist 18.3519
lhand -21.0897 11.4591
lfingers 7.12502
lthumb 5.2877 41.3731
rfemur -25.5797 -0.503418 28.0238
rtibia 30.6139
rfoot -16.3158 4.05618
rtoes -5.35868
lfemur -22.7459 -22.2067 1.83593
ltibia 36.2884
lfoot -47.9168 21.8553
ltoes -17.366
166
root 13.6046 19.6093 21.4791 -3.80209 53.5179 -14.584
lowerback 11.3576 0.977006 -6.03006
upperback -0.384495 0.47757 -0.334757
thorax -6.84771 0.444706 2.96573
lowerneck -11.0774 1.29292 6.01777
upperneck 44.9275 2.50635 -0.97927
head 19.1888 2.33626 -0.963001
rclavicle -1.64991e-013 2.54444e-014
rhumerus -18.9057 -4.59326 -93.3029
rradius 29.2554
rwrist -0.275364
rhand -27.2419 -7.17919
rfingers 7.12502
rthumb -0.653682 -37.1579
lclavicle -1.64991e-013 2.54444e-014
lhumerus -19.141 -1.51599 80.1288
lradius 28.3571
lwrist 18.3822
lhand -20.995 11.4344
lfingers 7.12502
lthumb 5.37922 41.3461
rfemur -25.5353 -0.506908 28.0529
rtibia 30.5333
rfoot -16.29 4.14024
rtoes -5.26224
lfemur -22.7673 -22.2321 1.85903
ltibia 36.3902
lfoot -48.0858 21.8013
ltoes -17.2146
167
root 13.5197 19.6052 21.6657 -3.81982 53.3375 -14.6274
lowerback 11.3347 0.988996 -6.03135
upperback -0.383989 0.494621 -0.339499
thorax -6.83584 0.452616 2.9586
lowerneck -11.0442 1.32474 6.0566
upperneck 44.9406 2.57849 -1.04724
head 19.1946 2.36192 -0.990628
rclavicle -3.18055e-014 -2.06736e-014
rhumerus -18.9096 -4.4375 -93.4025
rradius 29.3777
rwrist -0.380593
rhand -27.0418 -7.24812
rfingers 7.12502
rthumb -0.460488 -37.2274
lclavicle -3.18055e-014 -2.06736e-014
lhumerus -19.1796 -1.59562 80.1794
lradius 28.4076
lwrist 18.4103
lhand -20.9013 11.4035
lfingers 7.12502
lthumb 5.46967 41.3129
rfemur -25.4938 -0.52185 28.0844
rtibia 30.4572
rfoot -16.2673 4.22761
rtoes -5.18352
lfemur -22.7999 -22.2608 1.8843
ltibia 36.4986
lfoot -48.2361 21.7796
ltoes -17.1245
168
root 13.4338 19.6007 21.8516 -3.84249 53.1671 -14.6735
lowerback 11.3211 0.997585 -6.03729
upperback -0.385231 0.505816 -0.344035
thorax -6.8306 0.45806 2.95526
lowerneck -11.0131 1.3562 6.09489
upperneck 44.9493 2.65158 -1.11997
head 19.1985 2.38702 -1.02036
rclavicle 4.73108e-014 -1.11319e-014
rhumerus -18.9139 -4.29216 -93.5055
rradius 29.496
rwrist -0.485511
rhand -26.8339 -7.30743
rfingers 7.12502
rthumb -0.259667 -37.287
lclavicle 4.73108e-014 -1.11319e-014
lhumerus -19.2138 -1.67543 80.2258
lradius 28.4607
lwrist 18.4298
lhand -20.8058 11.3728
lfingers 7.12502
lthumb 5.56187 41.2798
rfemur -25.4512 -0.538559 28.1179
rtibia 30.3832
rfoot -16.2513 4.31646
rtoes -5.09997
lfemur -22.84 -22.2894 1.912
ltibia 36.6138
lfoot -48.3735 21.7773
ltoes -17.0771
169
root 13.3475 19.5958 22.0365 -3.86479 53.0061 -14.7205
lowerback 11.3073 0.99711 -6.04142
upperback -0.38813 0.505203 -0.347906
thorax -6.82582 0.457737 2.95365
lowerneck -10.9809 1.39277 6.1221
upperneck 44.953 2.73555 -1.19257
head 19.1991 2.41426 -1.0461
rclavicle -3.18055e-014 3.18055e-014
rhumerus -18.9183 -4.12997 -93.6134
rradius 29.6079
rwrist -0.600763
rhand -26.6329 -7.36081
rfingers 7.12502
rthumb -0.0655715 -37.3405
lclavicle -3.18055e-014 3.18055e-014
lhumerus -19.2449 -1.73367 80.2663
lradius 28.5124
lwrist 18.4372
lhand -20.7171 11.3422
lfingers 7.12502
lthumb 5.64746 41.2469
rfemur -25.4108 -0.570979 28.1536
rtibia 30.3097
rfoot -16.2315 4.41175
rtoes -5.02324
lfemur -22.8917 -22.3153 1.93917
ltibia 36.7349
lfoot -48.4877 21.8092
ltoes -17.0912
170
root 13.2608 19.5909 22.2211 -3.88649 52.8399 -14.7628
lowerback 11.2928 1.00406 -6.05185
upperback -0.391681 0.513363 -0.356075
thorax -6.82229 0.461891 2.94951
lowerneck -10.9491 1.42144 6.15754
upperneck 44.9518 2.80617 -1.27032
head 19.1964 2.43691 -1.07836
rclavicle -3.22031e-014 0
rhumerus -18.9256 -3.99916 -93.7193
rradius 29.7144
rwrist -0.708267
rhand -26.4311 -7.41018
rfingers 7.12502
rthumb 0.12942 -37.3899
lclavicle -3.22031e-014 0
lhumerus -19.2669 -1.81082 80.306
lradius 28.5599
lwrist 18.4358
lhand -20.6389 11.3205
lfingers 7.12502
lthumb 5.723 41.2233
rfemur -25.364 -0.599942 28.1904
rtibia 30.235
rfoot -16.2105 4.51157
rtoes -4.94878
lfemur -22.9364 -22.3446 1.96525
ltibia 36.8589
lfoot -48.6083 21.8374
ltoes -17.1028
171
root 13.1739 19.586 22.405 -3.90606 52.6787 -14.8035
lowerback 11.2747 1.00521 -6.06527
upperback -0.395387 0.513779 -0.362624
thorax -6.81615 0.46233 2.95013
lowerneck -10.9178 1.45339 6.18315
upperneck 44.9468 2.88471 -1.34876
head 19.1915 2.46068 -1.10775
rclavicle 4.37326e-015 -9.54166e-015
rhumerus -18.9328 -3.8588 -93.8256
rradius 29.8139
rwrist -0.815655
rhand -26.2405 -7.45745
rfingers 7.12502
rthumb 0.313502 -37.437
lclavicle 4.37326e-015 -9.54166e-015
lhumerus -19.2798 -1.85886 80.3411
lradius 28.5979
lwrist 18.4063
lhand -20.5667 11.2966
lfingers 7.12502
lthumb 5.79268 41.1974
rfemur -25.3171 -0.631399 28.2272
rtibia 30.1594
rfoot -16.1925 4.61059
rtoes -4.87922
lfemur -22.9862 -22.3767 1.99402
ltibia 36.9837
lfoot -48.7103 21.8785
ltoes -17.1423
172
root 13.0864 19.5812 22.5887 -3.92535 52.515 -14.8415
lowerback 11.2568 1.00849 -6.08734
upperback -0.399973 0.515888 -0.368493
thorax -6.81133 0.463967 2.95606
lowerneck -10.888 1.48198 6.19869
upperneck 44.9402 2.95925 -1.42396
head 19.1855 2.48152 -1.13447
rclavicle 2.82274e-014 -3.18055e-015
rhumerus -18.9417 -3.74012 -93.9278
rradius 29.9038
rwrist -0.901189
rhand -26.0564 -7.50037
rfingers 7.12502
rthumb 0.491276 -37.4795
lclavicle 2.82274e-014 -3.18055e-015
lhumerus -19.2831 -1.90861 80.3738
lradius 28.6266
lwrist 18.3636
lhand -20.4936 11.2775
lfingers 7.12502
lthumb 5.86325 41.1763
rfemur -25.2663 -0.656868 28.2665
rtibia 30.0834
rfoot -16.1781 4.70616
rtoes -4.80768
lfemur -23.0321 -22.4041 2.02396
ltibia 37.1058
lfoot -48.7921 21.9307
ltoes -17.206
173
root 12.9984 19.5767 22.7716 -3.94735 52.3562 -14.8855
lowerback 11.2368 1.00636 -6.11006
upperback -0.405473 0.511046 -0.370794
thorax -6.80571 0.462291 2.96733
lowerneck -10.8587 1.5112 6.20873
upperneck 44.9305 3.03859 -1.50543
head 19.1779 2.50232 -1.16241
rclavicle 5.24792e-014 3.18055e-014
rhumerus -18.9528 -3.60816 -94.029
rradius 29.9878
rwrist -0.984664
rhand -25.8829 -7.54318
rfingers 7.12502
rthumb 0.658827 -37.5219
lclavicle 5.24792e-014 3.18055e-014
lhumerus -19.276 -1.9325 80.402
lradius 28.6435
lwrist 18.2936
lhand -20.4187 11.255
lfingers 7.12502
lthumb 5.93559 41.1518
rfemur -25.2185 -0.68284 28.3116
rtibia 30.0084
rfoot -16.1691 4.79404
rtoes -4.73969
lfemur -23.083 -22.4302 2.06409
ltibia 37.2229
lfoot -48.8522 21.9873
ltoes -17.2782
174
root 12.9101 19.5724 22.9539 -3.96947 52.2028 -14.9298
lowerback 11.2163 1.00674 -6.13206
upperback -0.411868 0.509562 -0.374629
thorax -6.80104 0.462245 2.976
lowerneck -10.8299 1.53254 6.21437
upperneck 44.9174 3.10648 -1.58703
head 19.1675 2.51782 -1.19173
rclavicle 3.61788e-014 3.02153e-014
rhumerus -18.9665 -3.505 -94.122
rradius 30.0661
rwrist -1.04842
rhand -25.7193 -7.57993
rfingers 7.12502
rthumb 0.816873 -37.5581
lclavicle 3.61788e-014 3.02153e-014
lhumerus -19.2554 -1.96648 80.4302
lradius 28.65
lwrist 18.2085
lhand -20.3329 11.2275
lfingers 7.12502
lthumb 6.01846 41.1221
rfemur -25.1724 -0.712308 28.3585
rtibia 29.9349
rfoot -16.1649 4.87676
rtoes -4.68296
lfemur -23.136 -22.4598 2.10903
ltibia 37.3329
lfoot -48.8933 22.0504
ltoes -17.3606
